<svg xmlns="http://www.w3.org/2000/svg" width="384" height="110" fill="none"><path fill="#181D23" d="M57 96c22.644 0 41-18.356 41-41S79.644 14 57 14 16 32.356 16 55s18.356 41 41 41Z"/><path fill="url(#a)" fill-rule="evenodd" d="M57.025 28.148c-2.954 0-5.26 1.16-6.786 3.043-1.479 1.825-2.097 4.164-2.097 6.397 0 2.36.93 5.014 2.367 7.085 1.407 2.029 3.655 3.974 6.516 3.974 2.858 0 5.106-1.934 6.516-3.963 1.439-2.07 2.368-4.724 2.368-7.096 0-2.227-.59-4.57-2.065-6.401-1.525-1.895-3.84-3.04-6.819-3.04Zm-4.834 9.44c0-1.54.432-2.907 1.194-3.848.714-.88 1.837-1.543 3.64-1.543 1.855 0 2.97.665 3.665 1.529.747.928 1.17 2.292 1.17 3.862 0 1.424-.603 3.287-1.644 4.785-1.07 1.54-2.252 2.225-3.19 2.225-.935 0-2.117-.686-3.19-2.233-1.044-1.504-1.645-3.367-1.645-4.777Z" clip-rule="evenodd"/><path fill="url(#b)" d="M43.515 57.797c-4.104-.456-7.496 2.827-7.496 6.188 0 3.343 2.636 6.377 7.593 6.377 1.782 0 3.603-.781 5.603-2.237 2.33-1.697 4.262-3.69 6.197-5.687 1.94-2.002 3.882-4.006 6.23-5.715 2.327-1.695 4.986-3.014 7.987-3.014 6.837 0 11.642 4.508 11.642 10.427 0 5.902-5.618 10.92-11.99 10.213-2.56-.282-5.561-1.147-7.974-3.498l2.826-2.9c1.535 1.495 3.544 2.148 5.59 2.373h.003c4.104.456 7.496-2.827 7.496-6.188 0-3.343-2.636-6.377-7.593-6.377-1.782 0-3.603.781-5.604 2.237-2.33 1.697-4.262 3.69-6.196 5.687-1.94 2.002-3.883 4.006-6.23 5.715-2.328 1.695-4.986 3.014-7.987 3.014-6.837 0-11.642-4.508-11.642-10.427 0-5.902 5.617-10.92 11.99-10.213 2.56.282 5.561 1.147 7.974 3.498l-2.826 2.9c-1.535-1.495-3.544-2.148-5.59-2.373h-.003Z"/><path fill="#6046FF" d="M259.136 65.569h-.961a9.988 9.988 0 0 1-1.068 1.74c-.392.526-.926 1-1.602 1.423-.641.421-1.425.755-2.35 1.001-.89.246-1.976.37-3.258.37-1.638 0-3.169-.282-4.593-.844a11.097 11.097 0 0 1-3.685-2.583c-1.032-1.16-1.851-2.566-2.456-4.217-.57-1.652-.855-3.55-.855-5.694v-.948c0-2.109.303-3.99.908-5.64.641-1.653 1.496-3.04 2.564-4.165a11.14 11.14 0 0 1 3.791-2.636 12.012 12.012 0 0 1 4.593-.896c2.136 0 3.827.404 5.074 1.212 1.246.773 2.225 1.88 2.937 3.321h.961v-3.795h6.729v38.437h-14.516v-5.73h7.787V65.568Zm-7.049-1.793c2.1 0 3.791-.65 5.073-1.95 1.317-1.335 1.976-3.075 1.976-5.219v-.632c0-2.144-.659-3.866-1.976-5.166-1.282-1.336-2.973-2.003-5.073-2.003-2.101 0-3.81.65-5.127 1.95-1.282 1.265-1.923 3.005-1.923 5.219v.632c0 2.214.641 3.971 1.923 5.272 1.317 1.265 3.026 1.898 5.127 1.898ZM289.806 43.218h6.729v26.146h-6.729V65.57h-.961c-1.175 3.022-3.703 4.533-7.583 4.533-1.318 0-2.546-.21-3.685-.632a8.003 8.003 0 0 1-2.991-1.95c-.854-.88-1.531-1.969-2.029-3.27-.463-1.334-.694-2.898-.694-4.69V43.217h6.728v14.97c0 1.863.446 3.322 1.336 4.376.89 1.02 2.225 1.529 4.005 1.529 2.029 0 3.507-.633 4.432-1.898.962-1.3 1.442-3.057 1.442-5.271V43.218ZM301.572 43.218h11.855v3.795h.962c.498-1.44 1.335-2.548 2.51-3.32 1.21-.81 2.652-1.213 4.325-1.213 2.635 0 4.753.826 6.356 2.477 1.602 1.617 2.403 4.094 2.403 7.433v1.16l-6.943 1.511v-1.617c0-1.44-.374-2.583-1.121-3.426-.748-.879-1.87-1.318-3.365-1.318s-2.67.51-3.525 1.529c-.854 1.019-1.281 2.477-1.281 4.375v8.434h6.088v6.326h-18.264v-6.326h5.447V49.544h-5.447v-6.326ZM353.07 43.218h6.729v26.146h-6.729V65.57h-.962c-1.175 3.022-3.702 4.533-7.583 4.533-1.317 0-2.546-.21-3.685-.632a8.003 8.003 0 0 1-2.991-1.95c-.854-.88-1.531-1.969-2.029-3.27-.463-1.334-.694-2.898-.694-4.69V43.217h6.729v14.97c0 1.863.445 3.322 1.335 4.376.89 1.02 2.225 1.529 4.005 1.529 2.029 0 3.507-.633 4.433-1.898.961-1.3 1.442-3.057 1.442-5.271V43.218Z"/><path fill="#181D23" d="M161.375 58.58c.036.774.214 1.494.534 2.162a6.3 6.3 0 0 0 1.389 1.687 8.033 8.033 0 0 0 2.029 1.107 8.149 8.149 0 0 0 2.457.369c1.673 0 2.955-.281 3.845-.843.89-.598 1.531-1.3 1.922-2.11l5.768 3.164c-.32.668-.765 1.37-1.335 2.108-.57.703-1.317 1.353-2.243 1.95-.89.598-1.994 1.09-3.311 1.477-1.282.386-2.795.58-4.539.58-1.994 0-3.81-.317-5.448-.95a12.334 12.334 0 0 1-4.272-2.74c-1.175-1.195-2.101-2.654-2.777-4.376-.641-1.722-.961-3.672-.961-5.85v-.317c0-2.003.338-3.83 1.014-5.482.712-1.652 1.674-3.058 2.884-4.218a12.864 12.864 0 0 1 4.219-2.688c1.638-.668 3.382-1.002 5.234-1.002 2.278 0 4.236.404 5.874 1.213 1.638.773 2.991 1.774 4.059 3.004a11.478 11.478 0 0 1 2.35 4.007c.498 1.44.747 2.846.747 4.217v3.532h-19.439Zm6.355-9.962c-1.709 0-3.097.439-4.165 1.318-1.068.843-1.763 1.827-2.083 2.952h12.497c-.214-1.23-.89-2.25-2.03-3.058-1.103-.808-2.51-1.212-4.219-1.212ZM204.649 43.346h7.423l-6.408 12.283v.949l6.782 12.915h-7.744l-4.966-10.227h-.962l-4.966 10.227h-7.744l6.783-12.915v-.95l-6.462-12.282h7.476l4.913 9.594h.962l4.913-9.594ZM142.828 47.142h-.962a9.864 9.864 0 0 0-1.068-1.74c-.391-.527-.925-1.001-1.602-1.423-.641-.422-1.424-.755-2.35-1.002-.89-.245-1.976-.368-3.257-.368-1.638 0-3.169.28-4.593.843a11.077 11.077 0 0 0-3.685 2.583c-1.032 1.16-1.851 2.565-2.457 4.217-.569 1.652-.854 3.55-.854 5.693v.95c0 2.108.303 3.988.908 5.64.641 1.651 1.495 3.04 2.563 4.164a11.152 11.152 0 0 0 3.792 2.636 12.01 12.01 0 0 0 4.593.896c2.136 0 3.827-.404 5.073-1.212 1.246-.774 2.225-1.88 2.937-3.322h.962v3.796h6.729V31.055h-12.15v5.731h5.421v10.356Zm-7.05 1.792c2.101 0 3.792.65 5.074 1.95 1.317 1.336 1.976 3.076 1.976 5.22v.632c0 2.144-.659 3.866-1.976 5.166-1.282 1.335-2.973 2.003-5.074 2.003-2.1 0-3.809-.65-5.127-1.95-1.281-1.265-1.922-3.005-1.922-5.219v-.633c0-2.214.641-3.97 1.922-5.271 1.318-1.265 3.027-1.898 5.127-1.898ZM220.798 59.7h9.791v9.664h-9.791z"/><defs><linearGradient id="a" x1="31.97" x2="89.513" y1="28.148" y2="43.476" gradientUnits="userSpaceOnUse"><stop stop-color="#9488F0"/><stop offset="1" stop-color="#3AEAB5"/></linearGradient><linearGradient id="b" x1="31.97" x2="89.513" y1="28.148" y2="43.476" gradientUnits="userSpaceOnUse"><stop stop-color="#9488F0"/><stop offset="1" stop-color="#3AEAB5"/></linearGradient></defs></svg>